<?xml version="1.0" encoding="UTF-8"?>
<svg width="752pt" height="752pt" version="1.1" viewBox="0 0 752 752" xmlns="http://www.w3.org/2000/svg">
 <g>
  <path d="m278.68 198.41c-9.5039 0-18.574 4.0664-24.887 11.172l-13.5 15.191v-0.003907c-2.043 2.1875-3.1172 5.1055-2.9766 8.0938 0.13672 2.9883 1.4766 5.7969 3.7148 7.7812 2.2383 1.9883 5.1797 2.9883 8.1641 2.7734 2.9844-0.21094 5.7578-1.6211 7.6875-3.9062l13.5-15.176c2.1094-2.375 5.1211-3.7305 8.2969-3.7305h194.65c3.1758 0 6.1836 1.3555 8.2969 3.7305l36.16 40.668h-86.281l-0.003906 0.003906c-2.9727-0.042968-5.8359 1.1055-7.9531 3.1914-2.1133 2.0859-3.3047 4.9336-3.3047 7.9062 0 2.9727 1.1914 5.8203 3.3047 7.9062 2.1172 2.0859 4.9805 3.2344 7.9531 3.1914h94.52c7.5625 0 14.145-4.832 16.879-10.926 2.7383-6.0938 1.9766-14.203-3.0508-19.859l-41.637-46.84c-6.3164-7.1055-15.383-11.172-24.887-11.172z"/>
  <path d="m231.71 265.01c-18.254 0-33.297 15.043-33.297 33.297v221.99c0 18.254 15.043 33.297 33.297 33.297h288.59c18.254 0 33.297-15.043 33.297-33.297v-192.39c0.042969-2.9688-1.1094-5.832-3.1953-7.9492-2.0859-2.1172-4.9336-3.3086-7.9023-3.3086-2.9727 0-5.8203 1.1914-7.9062 3.3086-2.0859 2.1172-3.2383 4.9805-3.1953 7.9492v192.39c0 6.3398-4.7578 11.098-11.098 11.098h-288.59c-6.3398 0-11.098-4.7578-11.098-11.098v-221.99c0-6.3398 4.7578-11.098 11.098-11.098h122.09c6.3398 0 11.098 4.7578 11.098 11.098v76.801l-17.559-17.574 0.003906 0.003906c-2.0977-2.1523-4.9766-3.3594-7.9805-3.3516-4.5195 0-8.5859 2.7383-10.281 6.9258-1.6992 4.1875-0.69141 8.9883 2.5508 12.137l36.523 36.508h-0.003906c4.3359 4.332 11.363 4.332 15.695 0l36.523-36.508c4.3359-4.3398 4.3359-11.371 0-15.711-4.3398-4.3398-11.371-4.3398-15.711 0l-17.559 17.574v-76.801c0-18.254-15.043-33.297-33.297-33.297z"/>
 </g>
</svg>
