<?xml version="1.0" encoding="UTF-8"?>
<svg width="752pt" height="752pt" version="1.1" viewBox="0 0 752 752" xmlns="http://www.w3.org/2000/svg">
 <path d="m194.5 228.84h39.633c1.4922-0.007813 2.7891 1.0273 3.1094 2.4883l37.695 165.87h-8.4531c-18.145 0-34.914 9.6797-43.984 25.395-9.0742 15.715-9.0742 35.078 0 50.793 9.0703 15.715 25.84 25.395 43.984 25.395h5.2266c-3.5781 11.613-1.918 24.207 4.5547 34.492 6.4727 10.285 17.105 17.238 29.125 19.035 12.016 1.8008 24.223-1.7305 33.422-9.6719 9.1992-7.9375 14.477-19.496 14.457-31.645-0.058593-4.1484-0.74219-8.2656-2.0273-12.211h46.457c-1.2891 3.9453-1.9727 8.0625-2.0312 12.211-0.20312 12.277 5.0039 24.023 14.242 32.117 9.2344 8.0938 21.559 11.719 33.707 9.9102 12.145-1.8086 22.879-8.8711 29.355-19.305 6.4727-10.434 8.0312-23.188 4.2578-34.875h14.207c5.2852 0 10.172-2.8203 12.816-7.3984 2.6445-4.5781 2.6445-10.223 0-14.801-2.6445-4.5781-7.5312-7.3984-12.816-7.3984h-224.95c-7.5703 0-14.566-4.0391-18.352-10.598-3.7852-6.5547-3.7852-14.637 0-21.191 3.7852-6.5586 10.781-10.598 18.352-10.598h213.19c6.3906-0.011718 12.641-1.8867 17.977-5.4023 5.3398-3.5117 9.5391-8.5039 12.082-14.367l52.742-120.51c3.2422-7.3672 2.543-15.867-1.8516-22.605-4.3984-6.7383-11.902-10.801-19.945-10.797h-238.2c-5.2852 0-10.172 2.8203-12.816 7.3984-2.6406 4.5781-2.6406 10.219 0 14.801 2.6445 4.5781 7.5312 7.3984 12.816 7.3984h229.39l-49.309 112.48c-0.51953 1.1719-1.6797 1.9258-2.9609 1.9219h-171.67c-1.4961 0.007813-2.7969-1.0273-3.125-2.4844l-38.699-169.91c-1.6094-7.2695-5.6562-13.766-11.473-18.41-5.8164-4.6484-13.051-7.1602-20.496-7.1172h-39.633c-5.2852 0-10.172 2.8203-12.816 7.3984-2.6406 4.5781-2.6406 10.223 0 14.801 2.6445 4.5781 7.5312 7.3984 12.816 7.3984zm129.17 282.15h0.003906c-0.007813 4.9297-2.9805 9.3711-7.5391 11.254-4.5586 1.8828-9.8008 0.83594-13.285-2.6523-3.4844-3.4883-4.5234-8.7344-2.6367-13.289 1.8867-4.5547 6.3359-7.5234 11.266-7.5234 3.2344 0 6.3398 1.2852 8.6289 3.5781 2.2852 2.2891 3.5703 5.3945 3.5664 8.6328zm125.99 0c-0.003906 4.9297-2.9805 9.3711-7.5352 11.254-4.5586 1.8828-9.8008 0.83594-13.285-2.6523-3.4844-3.4883-4.5273-8.7344-2.6367-13.289 1.8867-4.5547 6.332-7.5234 11.266-7.5234 6.7344 0.007812 12.191 5.4727 12.191 12.211z"/>
</svg>
