<?xml version="1.0" encoding="UTF-8"?>
<svg width="752pt" height="752pt" version="1.1" viewBox="0 0 752 752" xmlns="http://www.w3.org/2000/svg">
 <g>
  <path d="m201.37 251.69c0 3.9258 1.5586 7.6875 4.3359 10.465 2.7734 2.7734 6.5391 4.332 10.465 4.332h13.48l30.297 257.51c1.4492 12.234 7.3359 23.508 16.543 31.691 9.2109 8.1836 21.102 12.703 33.418 12.707h132.19c12.32-0.003906 24.211-4.5234 33.422-12.707 9.207-8.1836 15.094-19.457 16.543-31.691l30.293-257.51h13.484c5.2852 0 10.172-2.8203 12.816-7.3984 2.6445-4.5781 2.6445-10.219 0-14.801-2.6445-4.5781-7.5312-7.3984-12.816-7.3984h-73.996v-8.8789c0-11.777-4.6797-23.07-13.004-31.395-8.3281-8.3281-19.621-13.004-31.395-13.004h-82.879c-11.773 0-23.066 4.6758-31.395 13.004-8.3242 8.3242-13.004 19.617-13.004 31.395v8.8789h-73.996c-3.9258 0-7.6914 1.5586-10.465 4.3359-2.7773 2.7734-4.3359 6.5391-4.3359 10.465zm118.39-23.68h0.003906c0-3.9258 1.5586-7.6914 4.332-10.465 2.7773-2.7773 6.5391-4.3359 10.465-4.3359h82.879c3.9219 0 7.6875 1.5586 10.465 4.3359 2.7734 2.7734 4.332 6.5391 4.332 10.465v8.8789h-112.47zm-14.801 38.477h187.59l-29.879 254.02c-0.59375 5.0391-3.0195 9.6836-6.8086 13.055-3.793 3.3711-8.6914 5.2344-13.766 5.2344h-132.19c-5.0742 0-9.9688-1.8633-13.762-5.2344s-6.2148-8.0156-6.8086-13.055l-29.879-254.02z"/>
  <path d="m411.52 452.72c3.9258 0 7.6914-1.5586 10.465-4.3359 2.7773-2.7734 4.3359-6.5391 4.3359-10.465v-106.01c0-3.9258-1.5586-7.6875-4.3359-10.465-2.7734-2.7773-6.5391-4.3359-10.465-4.3359s-7.6875 1.5586-10.465 4.3359c-2.7734 2.7773-4.3359 6.5391-4.3359 10.465l0.11719 105.99h0.003906c-0.003906 3.9102 1.5352 7.6602 4.2852 10.434 2.75 2.7773 6.4883 4.3516 10.395 4.3828z"/>
  <path d="m340.48 452.63c3.9219 0 7.6875-1.5586 10.465-4.3359 2.7734-2.7734 4.332-6.5391 4.332-10.465v-106.01c0-3.9258-1.5586-7.6875-4.332-10.465-2.7773-2.7734-6.543-4.332-10.465-4.332-3.9258 0-7.6914 1.5586-10.465 4.332-2.7773 2.7773-4.3359 6.5391-4.3359 10.465l0.11719 105.99v0.003906c-0.003906 3.9062 1.5391 7.6562 4.2891 10.43 2.75 2.7773 6.4844 4.3516 10.395 4.3828z"/>
 </g>
</svg>
