<?xml version="1.0" encoding="UTF-8"?>
<svg width="752pt" height="752pt" version="1.1" viewBox="0 0 752 752" xmlns="http://www.w3.org/2000/svg">
 <path d="m523.46 369.75c11.152-24.613 20.785-45.879 21.496-58.688 0.94141-17.152 3.8164-69.336-32.004-107.04-25.203-26.535-64.098-39.957-115.61-39.957h-1.0938c-148.88 0.55469-153.72 109.89-155.54 151.06l-0.25781 5.4844c-1.1602 21.023-17.07 38.219-26.453 46.617v-0.003906c-3.8203 3.4258-6.3359 8.0664-7.125 13.133-0.79297 5.0703 0.19531 10.258 2.7891 14.684l8.375 14.199-0.83594 15.234c-0.10938 1.9609 0.56641 3.8828 1.8711 5.3438l6.207 6.9336-0.79297 14.414h0.003907c-0.046876 1.875 0.56641 3.7109 1.7305 5.1797 0.066406 0.074218 6.2891 8.207 5.0781 30.242-0.58203 6.3633 1.5703 12.676 5.918 17.359 10.746 11.434 33.297 11.594 57.238 11.758 7.1836 0.050781 14.613 0.10547 21.461 0.47266l-0.003907 0.003906c4.293 0.22656 8.2969 2.2422 11.035 5.5547 12.285 13.883 12.859 48.742 12.047 61.012-0.125 2.0391 0.60156 4.043 2.0039 5.5273 1.4023 1.4883 3.3594 2.3281 5.4023 2.3242h170.2c2.457 0 4.7539-1.2188 6.1289-3.2578 1.3789-2.0352 1.6523-4.6211 0.73438-6.9023-0.33203-0.8125-32.668-81.715-30.34-123.27 1.2773-23.227 16.703-57.324 30.34-87.41zm-17.641 206.04h-151.78c0.11719-15.008-1.4805-47.453-15.977-63.891v0.003906c-5.3359-6.3164-13.055-10.133-21.309-10.539-7.2305-0.39844-14.844-0.45313-22.199-0.50391-18.824-0.13281-40.152-0.27344-46.559-7.0898h-0.003906c-1.5625-1.7422-2.2656-4.0977-1.9141-6.4141 1.5586-13.02-0.75781-26.207-6.6602-37.914l0.82031-14.984c0.10547-1.9609-0.57031-3.8789-1.8789-5.3359l-6.207-6.9414 0.80078-14.406h-0.003906c0.074219-1.4609-0.28125-2.9102-1.0195-4.168l-9.5078-16.125c-1.8125-3.043-1.1875-6.9453 1.4805-9.2773 11.098-9.9062 29.91-30.465 31.367-56.828l0.26562-5.6445c1.8047-40.809 6.0312-136.4 140.82-136.89h1.043c47.285 0 82.566 11.906 104.87 35.387 31.426 33.078 28.812 80.465 27.949 96.035-0.54688 10.055-10.094 31.078-20.195 53.391-14.172 31.277-30.234 66.715-31.672 92.711-2.0156 36.004 18.59 95.625 27.477 119.43zm-24.004-271.99c-0.78516-1.793-2.25-3.2031-4.0781-3.9219l-10.73-4.2031h0.003907c0.41016-5.1016 0.31641-10.238-0.28125-15.324l10.539-4.6016h-0.003906c3.7422-1.6367 5.4531-5.9961 3.8203-9.7383l-12.441-28.383c-0.77734-1.8125-2.25-3.2344-4.082-3.957s-3.8789-0.68359-5.6836 0.10547l-10.508 4.5898c-3.3281-3.8906-7.0273-7.4492-11.047-10.617l4.2031-10.723c0.72266-1.832 0.69141-3.875-0.09375-5.6797-0.78516-1.8047-2.2539-3.2227-4.0898-3.9414l-28.859-11.328c-1.8281-0.72656-3.875-0.69141-5.6797 0.09375-1.8047 0.78516-3.2227 2.2578-3.9375 4.0938l-4.2109 10.73c-5.1016-0.42188-10.234-0.33203-15.316 0.27344l-4.582-10.492c-0.78125-1.8047-2.2461-3.2266-4.0742-3.9453-1.8281-0.72266-3.8672-0.6875-5.6719 0.097657l-28.414 12.395c-1.8008 0.78516-3.2148 2.2539-3.9297 4.082-0.71875 1.832-0.67578 3.8711 0.11328 5.668l4.5938 10.539c-3.8984 3.3203-7.4531 7.0156-10.617 11.039l-10.695-4.1719c-1.8281-0.71094-3.8633-0.67188-5.668 0.10156-1.7969 0.78516-3.2109 2.2539-3.9297 4.0781l-11.32 28.859c-0.72656 1.832-0.69141 3.875 0.09375 5.6797 0.78906 1.8047 2.2617 3.2227 4.0938 3.9414l10.73 4.2109c-0.41406 5.1016-0.32031 10.23 0.28125 15.316l-10.539 4.6016h0.003906c-3.7422 1.6367-5.4531 5.9961-3.8203 9.7383l12.402 28.414c0.78516 1.8008 2.2539 3.2109 4.082 3.9297 1.8281 0.71484 3.8633 0.67578 5.6641-0.10937l10.508-4.6133c3.3203 3.8984 7.0234 7.4531 11.047 10.621l-4.2188 10.691c-0.72656 1.832-0.69141 3.875 0.09375 5.6797 0.78906 1.8086 2.2617 3.2227 4.0938 3.9414l28.859 11.328c1.832 0.72656 3.875 0.69141 5.6797-0.09375 1.8086-0.78516 3.2266-2.2617 3.9414-4.0938l4.2031-10.73c5.1055 0.41406 10.238 0.32422 15.324-0.27344l4.5938 10.531c0.78516 1.7969 2.2539 3.2109 4.082 3.9258s3.8672 0.67578 5.6641-0.10938l28.414-12.395c1.8008-0.78516 3.2148-2.2539 3.9336-4.0859 0.71484-1.8281 0.67578-3.8672-0.11328-5.668l-4.6016-10.535c3.8906-3.3242 7.4492-7.0234 10.617-11.043l10.723 4.2109c1.8281 0.72656 3.875 0.69141 5.6797-0.09375 1.8047-0.78516 3.2227-2.2578 3.9375-4.0938l11.32-28.859h0.003906c0.72266-1.832 0.68359-3.875-0.10547-5.6836zm-22.324 22.254-9.1602-3.5898c-3.2461-1.2852-6.9453-0.12891-8.8789 2.7734-4.125 6.1523-9.2969 11.531-15.281 15.887-2.8008 2.0469-3.8008 5.7617-2.4141 8.9414l3.9141 8.9766-14.852 6.4805-3.9141-8.9766c-1.3867-3.1758-4.793-4.9648-8.1953-4.2969-7.2695 1.4258-14.73 1.5586-22.047 0.39844-3.4336-0.55078-6.7852 1.3633-8.0586 4.6016l-3.5586 9.1328-15.094-5.918 3.5977-9.1602-0.003906-0.003907c1.2852-3.2422 0.12891-6.9453-2.7734-8.8789-6.1562-4.1211-11.539-9.293-15.902-15.281-2.0469-2.7969-5.7617-3.8008-8.9375-2.4102l-8.9688 3.9141-6.4844-14.801 8.9688-3.9297c3.1758-1.3828 4.9648-4.7852 4.3086-8.1836-1.4219-7.2695-1.5547-14.734-0.39062-22.051 0.54297-3.4297-1.3711-6.7812-4.6055-8.0508l-9.1367-3.582 5.918-15.094 9.1602 3.5898v-0.003907c3.2461 1.2852 6.9453 0.12891 8.8828-2.7734 4.1133-6.1484 9.2773-11.527 15.258-15.887 2.7969-2.0469 3.8008-5.7617 2.4102-8.9375l-3.9141-8.9766 14.852-6.4805 3.9141 8.9766v-0.003907c1.3906 3.1758 4.7969 4.9648 8.1992 4.3008 7.2695-1.4219 14.73-1.5547 22.043-0.40234 3.4336 0.55078 6.7891-1.3633 8.0586-4.6016l3.5898-9.1602 15.09 5.918-3.5898 9.1602v0.003906c-1.2852 3.2422-0.12891 6.9414 2.7734 8.8789 6.1562 4.125 11.539 9.2969 15.902 15.289 2.0469 2.793 5.7617 3.793 8.9375 2.4023l8.9688-3.9141 6.4805 14.852-8.9766 3.9219h0.003907c-3.1719 1.3867-4.957 4.7852-4.3008 8.1836 1.4219 7.2695 1.5547 14.734 0.39453 22.051-0.54688 3.4336 1.3672 6.7812 4.6016 8.0508l9.168 3.5977zm-70.992-90.648c-14.348 0-28.109 5.6992-38.254 15.848-10.145 10.145-15.848 23.906-15.848 38.254 0 14.348 5.7031 28.105 15.848 38.254 10.145 10.145 23.906 15.844 38.254 15.844s28.109-5.6992 38.254-15.844c10.145-10.148 15.844-23.906 15.844-38.254-0.011718-14.344-5.7148-28.098-15.859-38.242-10.145-10.141-23.895-15.844-38.238-15.859zm0 93.391c-10.426 0-20.422-4.1406-27.789-11.508-7.3711-7.3711-11.512-17.371-11.512-27.793s4.1445-20.418 11.516-27.789c7.3711-7.3711 17.367-11.508 27.789-11.508 10.426 0 20.418 4.1445 27.789 11.516 7.3711 7.3711 11.508 17.367 11.508 27.793-0.011719 10.418-4.1562 20.406-11.527 27.773-7.3672 7.3633-17.355 11.508-27.773 11.516z"/>
</svg>
