<?xml version="1.0" encoding="UTF-8"?>
<svg width="752pt" height="752pt" version="1.1" viewBox="0 0 752 752" xmlns="http://www.w3.org/2000/svg">
 <g>
  <path d="m415.44 550.59h-78.879c-4.9023 0-8.8789-3.9766-8.8789-8.8789 0-32.867-13.43-61.609-42.27-90.445-24.195-24.195-37.523-56.367-37.523-90.586s13.324-66.391 37.523-90.586c24.195-24.195 56.367-37.523 90.586-37.523s66.391 13.324 90.586 37.523c24.195 24.195 37.523 56.367 37.523 90.586s-13.324 66.391-37.523 90.586c-28.836 28.836-42.266 57.578-42.266 90.445 0 4.9023-3.9727 8.8789-8.8789 8.8789zm-70.301-17.758h61.723c1.1953-17.527 5.9375-34.418 14.148-50.328 7.7305-14.98 18.531-29.305 33.02-43.793 43.027-43.027 43.027-113.03 0-156.06-20.844-20.844-48.555-32.32-78.031-32.32s-57.188 11.48-78.031 32.32c-43.027 43.023-43.027 113.03 0 156.06 14.488 14.488 25.289 28.812 33.02 43.793 8.2148 15.906 12.957 32.797 14.152 50.328z"/>
  <path d="m431.01 424.57c-2.2734 0-4.5469-0.86719-6.2773-2.6016-3.4688-3.4688-3.4688-9.0898 0-12.559 26.867-26.867 26.871-70.586 0-97.457-3.4688-3.4688-3.4688-9.0898 0-12.559s9.0898-3.4688 12.559 0c33.793 33.793 33.793 88.777 0 122.57-1.7344 1.7383-4.0078 2.6055-6.2812 2.6055z"/>
  <path d="m415.44 595.96h-78.879c-4.9023 0-8.8789-3.9766-8.8789-8.8789 0-4.9023 3.9766-8.8789 8.8789-8.8789h78.879c4.9023 0 8.8789 3.9766 8.8789 8.8789 0 4.9023-3.9727 8.8789-8.8789 8.8789z"/>
  <path d="m376 212.84c-4.9023 0-8.8789-3.9766-8.8789-8.8789v-39.039c0-4.9023 3.9766-8.8789 8.8789-8.8789s8.8789 3.9766 8.8789 8.8789v39.039c0.003906 4.9062-3.9727 8.8789-8.8789 8.8789z"/>
  <path d="m297.65 233.84c-3.0703 0-6.0547-1.5938-7.6992-4.4414l-19.52-33.809c-2.4531-4.2461-0.99609-9.6797 3.25-12.129 4.2461-2.4531 9.6758-0.99609 12.129 3.25l19.52 33.809c2.4531 4.2461 0.99609 9.6797-3.25 12.129-1.3984 0.80859-2.9258 1.1914-4.4297 1.1914z"/>
  <path d="m240.27 291.2c-1.5078 0-3.0352-0.38281-4.4297-1.1914l-33.809-19.52c-4.2461-2.4531-5.7031-7.8828-3.25-12.129 2.4531-4.2461 7.8828-5.7031 12.129-3.25l33.809 19.52c4.2461 2.4531 5.7031 7.8828 3.25 12.129-1.6445 2.8477-4.6289 4.4414-7.6992 4.4414z"/>
  <path d="m454.36 233.84c-1.5078 0-3.0352-0.38281-4.4297-1.1914-4.2461-2.4531-5.7031-7.8828-3.25-12.129l19.52-33.809c2.4531-4.2461 7.8828-5.7031 12.129-3.25 4.2461 2.4531 5.7031 7.8828 3.25 12.129l-19.52 33.809c-1.6445 2.8477-4.6289 4.4414-7.6992 4.4414z"/>
  <path d="m511.74 291.2c-3.0703 0-6.0547-1.5938-7.6992-4.4414-2.4531-4.2461-0.99609-9.6797 3.25-12.129l33.809-19.52c4.2461-2.4531 9.6797-1 12.129 3.25 2.4531 4.2461 0.99609 9.6797-3.25 12.129l-33.809 19.52c-1.3984 0.80469-2.9258 1.1914-4.4297 1.1914z"/>
 </g>
</svg>
