<?xml version="1.0" encoding="UTF-8"?>
<svg width="752pt" height="752pt" version="1.1" viewBox="0 0 752 752" xmlns="http://www.w3.org/2000/svg">
 <g>
  <path d="m507.23 308.33 7.8125-7.8125v-0.003906c8.5898-8.3945 13.465-19.875 13.531-31.883 0.070312-12.008-4.6719-23.547-13.16-32.039-8.4922-8.4922-20.031-13.23-32.039-13.16-12.008 0.066406-23.492 4.9414-31.887 13.527l-12.836 12.836-95.801 96.043-64.125 63.934c-18.543 18.539-32.547 41.117-40.918 65.969-0.37891 1.043-0.71094 2.082-1.043 3.125l-0.94531 3.0781-11.648 36.891c-0.81641 2.5234-0.13672 5.293 1.75 7.1523 1.3203 1.3516 3.1328 2.1055 5.0234 2.082 0.72266 0.007813 1.4414-0.10547 2.1289-0.32812l36.891-11.648 3.0781-0.94531 3.0781-0.99609 0.003906-0.003907c24.848-8.3672 47.43-22.371 65.969-40.918l63.934-63.742 91.164-91.117 3.3633 3.3633c4.2617 4.3008 4.2617 11.23 0 15.531l-99.453 99.453c-2.7461 2.7852-2.7461 7.2539 0 10.039 1.3398 1.3203 3.1406 2.0664 5.0195 2.0859 1.8828 0 3.6914-0.75 5.0195-2.0859l99.453-99.453c4.7305-4.7148 7.3906-11.125 7.3906-17.805 0-6.6836-2.6602-13.09-7.3906-17.809zm-265.21 201.89 4.7344-15.484 10.609 10.609zm30.734-9.4727-21.027-21.027h0.003906c6.9805-20.184 17.984-38.746 32.344-54.555l43.238 43.238c-15.902 14.301-34.543 25.227-54.793 32.105zm64.691-42.289-43.426-43.426 53.562-54.086 43.477 43.477zm63.652-64.125-43.426-43.426 86-86.051 43.477 43.477zm96.09-96.043-43.426-43.426 7.7656-7.8125c7.7578-7.7578 19.062-10.789 29.66-7.9492s18.875 11.117 21.715 21.715-0.19141 21.902-7.9492 29.66z"/>
  <path d="m443.68 264.85-86 86.051 86.047-86.004z"/>
 </g>
</svg>
