<?xml version="1.0" encoding="UTF-8"?>
<svg width="752pt" height="752pt" version="1.1" viewBox="0 0 752 752" xmlns="http://www.w3.org/2000/svg">
 <defs>
  <clipPath id="b">
   <path d="m395 218h217.79v336h-217.79z"/>
  </clipPath>
  <clipPath id="a">
   <path d="m139.21 218h217.79v336h-217.79z"/>
  </clipPath>
 </defs>
 <g>
  <g clip-path="url(#b)">
   <path d="m425.29 553.06c-6.6875 0-12.945-1.3438-18.113-4.8359-5.3672-3.6094-11.703-11.031-11.445-25.789 0.375-20.422 17.109-29.461 29.344-36.07l3.8867-2.1328c16.023-8.957 28.258-17.129 38.5-25.691 20.402-17.109 30.094-32.164 28.988-36.012-0.019531 0-0.61328-0.67188-2.7812-1.4219-3.1172-1.0664-7.0234-1.3633-11.148-1.6758-3.4141-0.25781-6.7891-0.51172-10.023-1.1445-47.418-8.918-76.879-43.984-76.879-91.559-0.003906-59.871 48.715-108.59 108.58-108.59 60.895 0 108.59 47.695 108.59 108.59 0 71.176-36.23 169.52-138.32 212.34l-2.4648 1.0664c-11.684 4.9297-30.473 12.922-46.711 12.922zm78.91-315.19c-48.996 0-88.855 39.859-88.855 88.855 0 38.598 22.16 64.898 60.797 72.16 2.5273 0.45312 5.1914 0.65234 7.8555 0.84766 4.9531 0.39453 10.559 0.80859 16.062 2.7031 11.82 4.0469 14.977 12.055 15.785 16.496 3.4727 18.648-20.898 42.305-35.734 54.719-11.207 9.3945-24.41 18.215-41.516 27.785l-4.1445 2.2695c-11.742 6.3125-18.863 10.773-19.004 19.062-0.078125 4.7344 0.82812 7.8125 2.7422 9.0781 5.8398 3.9844 21.371 0.59375 46.074-9.9062l2.5664-1.0859c93.176-39.07 126.23-128.99 126.23-194.13 0-49.824-39.031-88.855-88.855-88.855z"/>
  </g>
  <g clip-path="url(#a)">
   <path d="m168.79 553.06c-6.6875 0-12.965-1.3438-18.113-4.8359-5.3672-3.6094-11.723-11.031-11.465-25.789 0.35547-20.441 17.129-29.48 29.383-36.09l3.8672-2.1133c16.023-8.957 28.258-17.129 38.477-25.691 20.422-17.09 30.113-32.145 29.008-36.012-0.019531 0-0.61328-0.67188-2.7812-1.4219-3.1172-1.0664-7.0234-1.3633-11.168-1.6758-3.3945-0.25781-6.7695-0.51172-10.023-1.1445-47.438-8.918-76.879-43.984-76.879-91.559 0-59.871 48.719-108.59 108.59-108.59 60.895 0 108.59 47.695 108.59 108.59 0 71.176-36.23 169.5-138.32 212.34l-2.4648 1.0664c-11.684 4.9297-30.449 12.922-46.691 12.922zm78.891-315.19c-48.996 0-88.855 39.859-88.855 88.855 0 38.598 22.16 64.898 60.797 72.16 2.5469 0.45312 5.2109 0.65234 7.875 0.84766 4.9531 0.39453 10.578 0.80859 16.082 2.7031 11.82 4.0469 14.957 12.078 15.785 16.496 3.4727 18.668-20.918 42.328-35.754 54.738-11.188 9.3516-24.391 18.172-41.516 27.766l-4.125 2.25c-11.723 6.332-18.867 10.793-19.023 19.082-0.078124 4.7344 0.82813 7.8125 2.7422 9.0781 8.7227 5.9609 36.84-6 46.035-9.9062l2.5664-1.0859c93.195-39.09 126.25-128.99 126.25-194.13 0-49.824-39.031-88.855-88.855-88.855z"/>
  </g>
 </g>
</svg>
