<?xml version="1.0" encoding="UTF-8"?>
<svg width="752pt" height="752pt" version="1.1" viewBox="0 0 752 752" xmlns="http://www.w3.org/2000/svg">
 <g>
  <path d="m320.37 468.35c-1.2656-0.003906-2.4766 0.49609-3.3672 1.3867-0.89453 0.89453-1.3945 2.1055-1.3906 3.3672 0.007813 1.2578 0.50781 2.4609 1.4023 3.3477 0.89062 0.88281 2.0977 1.3789 3.3555 1.3711h111.27c2.6016-0.007813 4.7109-2.1133 4.7188-4.7188 0.007813-1.2539-0.48828-2.4609-1.375-3.3555-0.88281-0.89062-2.0859-1.3945-3.3438-1.3984z"/>
  <path d="m375.85 162.88c-1.1992 0.046875-2.3359 0.54688-3.1797 1.3984l-69.262 69.254c-1.8359 1.8438-1.8359 4.8281 0 6.6758 1.8477 1.8359 4.832 1.8359 6.6797 0l61.184-61.176v148.19c0.007812 2.6055 2.1133 4.7148 4.7188 4.7266 1.2578 0.003907 2.4648-0.49219 3.3594-1.3789 0.89063-0.88672 1.3906-2.0898 1.3945-3.3477v-148.15l61.141 61.141c0.88672 0.89453 2.0977 1.3984 3.3555 1.3984 1.2617 0 2.4727-0.50391 3.3594-1.3984 1.8359-1.8477 1.8359-4.832 0-6.6758l-69.25-69.254c-0.92578-0.92969-2.1914-1.4336-3.5-1.3984z"/>
  <path d="m236.89 190.15c-9.4844 0-17.836 5.3867-23.531 13.355-5.6953 7.9727-9.0195 18.645-9.0195 30.34v151.07h-0.83203c-15.508 0-26.992 15.094-26.992 32.539v139.11c0 17.445 11.484 32.551 26.992 32.551h345.01c15.508 0 26.992-15.102 26.992-32.551v-139.11c0-17.445-11.484-32.539-26.992-32.539h-0.83984v-151.07c0-11.695-3.3242-22.367-9.0195-30.34-5.6953-7.9688-14.047-13.355-23.531-13.355h-61.215c-1.2539-0.003907-2.4609 0.48828-3.3516 1.375-0.89453 0.88281-1.3984 2.0859-1.4023 3.3438-0.003906 1.2617 0.49609 2.4727 1.3867 3.3672 0.89453 0.89062 2.1055 1.3906 3.3672 1.3867h61.215c5.9258 0 11.473 3.2969 15.836 9.4062 4.3633 6.1094 7.2422 14.934 7.2422 24.816v151.07h-324.38v-151.07c0-9.8828 2.8711-18.707 7.2344-24.816 4.3594-6.1094 9.9062-9.4062 15.832-9.4062h61.215c1.2539-0.003906 2.457-0.50781 3.3438-1.4023 0.88281-0.89062 1.3789-2.0977 1.375-3.3516-0.011718-2.6016-2.1172-4.707-4.7188-4.7188zm-33.383 204.23h345.01c9.1523 0 17.508 9.6875 17.508 23.07v139.11c0 13.379-8.3555 23.07-17.508 23.07l-345.01-0.003906c-9.1523 0-17.52-9.6875-17.52-23.07v-139.11c0-13.379 8.3633-23.07 17.52-23.07z"/>
 </g>
</svg>
